<?xml version="1.0" standalone="no"?>
<!DOCTYPE svg PUBLIC "-//W3C//DTD SVG 20010904//EN"
 "http://www.w3.org/TR/2001/REC-SVG-20010904/DTD/svg10.dtd">
<svg version="1.0" xmlns="http://www.w3.org/2000/svg"
 width="369.000000pt" height="376.000000pt" viewBox="0 0 369.000000 376.000000"
 preserveAspectRatio="xMidYMid meet">

<g transform="translate(0.000000,376.000000) scale(0.100000,-0.100000)"
fill="#000000" stroke="none">
<path d="M1824 3615 c-14 -21 -16 -41 -10 -118 4 -51 13 -120 21 -153 7 -32
13 -59 12 -60 -1 0 -74 3 -162 7 -247 11 -394 10 -438 -3 -53 -16 -102 -64
-115 -113 -6 -22 -20 -75 -31 -117 -22 -82 -39 -208 -26 -196 4 4 16 3 27 -3
15 -8 24 -7 39 7 11 10 36 17 61 18 116 2 172 -81 143 -214 -6 -26 -4 -32 13
-37 11 -2 24 -14 30 -26 10 -20 11 -20 11 10 1 17 -3 34 -7 37 -14 9 -13 68 2
92 9 12 25 25 36 29 25 8 66 -16 75 -45 6 -18 15 -20 98 -20 l92 0 -32 -21
c-38 -24 -43 -41 -10 -35 12 3 26 5 30 5 4 1 17 20 27 44 29 66 61 90 125 95
l55 4 15 51 c8 28 15 67 15 86 1 20 7 47 15 61 19 33 19 160 1 205 l-15 35 30
0 c24 0 29 -4 25 -17 -2 -10 -7 -65 -11 -123 -4 -58 -13 -136 -21 -173 -18
-89 -18 -97 5 -97 23 0 51 -35 51 -63 0 -18 2 -18 33 2 17 12 54 33 80 47 33
17 57 39 78 74 17 28 33 50 37 50 3 0 3 -3 -1 -6 -3 -4 3 -25 15 -48 21 -42
27 -128 9 -150 -5 -6 -14 -28 -20 -48 -7 -21 -30 -57 -52 -80 -39 -43 -47 -58
-29 -58 5 0 9 6 7 13 -1 6 4 11 11 9 8 -1 11 2 6 9 -8 14 31 3 64 -19 16 -11
22 -24 22 -52 0 -32 -4 -39 -29 -50 -32 -13 -54 -6 -84 28 -18 20 -18 20 -50
-12 -51 -50 -76 -60 -153 -61 -53 -1 -81 -7 -107 -23 -31 -18 -41 -19 -77 -10
-32 8 -44 8 -50 -1 -4 -7 -11 -13 -16 -13 -5 0 -8 -3 -7 -8 1 -4 -23 -7 -54
-6 -49 2 -59 6 -84 34 -25 28 -29 41 -29 90 0 52 -11 82 -31 82 -4 0 -6 -20
-4 -45 1 -25 -1 -42 -5 -40 -5 3 -12 -4 -15 -15 -7 -23 7 -50 66 -120 l37 -46
-45 -24 c-73 -39 -96 -60 -82 -76 17 -20 31 -17 24 5 -3 11 0 23 6 27 19 11
41 -27 35 -59 -3 -16 -2 -26 4 -22 11 7 32 -30 22 -40 -4 -5 -1 -5 6 -1 17 10
15 33 -4 40 -11 4 -15 14 -12 31 3 14 -1 30 -8 36 -21 17 -17 39 9 48 30 11
41 -8 19 -33 -16 -18 -16 -18 3 -9 11 6 27 8 35 5 12 -4 11 -1 -2 15 -22 24
-23 43 -2 43 9 0 18 -9 21 -21 4 -13 8 -16 13 -9 5 8 10 6 19 -4 11 -13 7 -19
-23 -37 -20 -11 -36 -25 -36 -31 0 -5 7 -2 16 6 8 9 22 16 30 16 8 0 14 5 14
10 0 23 29 8 33 -17 l4 -28 2 28 c1 27 2 27 25 12 21 -14 24 -14 30 0 3 9 6
25 6 35 0 49 83 71 99 27 5 -13 5 -43 1 -67 -7 -39 -5 -47 15 -66 18 -16 25
-18 29 -9 3 8 1 15 -5 17 -5 2 12 4 39 5 26 1 66 4 90 8 28 4 42 3 42 -5 0 -7
-9 -9 -22 -5 l-23 7 23 -17 c32 -23 27 -42 -13 -55 -39 -13 -48 -22 -40 -42 5
-12 13 -13 40 -4 44 14 46 28 3 15 -17 -5 -34 -7 -36 -4 -3 2 4 7 14 10 46 14
69 32 66 51 -8 51 2 80 18 54 8 -13 10 -12 10 3 0 9 5 17 10 17 6 0 10 -8 11
-17 0 -16 2 -15 10 2 11 21 79 61 79 46 0 -5 -4 -11 -9 -13 -5 -1 -3 -12 6
-23 15 -20 15 -20 10 3 -3 12 -1 22 4 22 4 0 6 6 3 14 -7 18 15 31 29 17 7 -7
7 -18 -2 -37 -11 -24 -10 -26 3 -15 8 7 17 22 19 34 l4 22 8 -22 c8 -24 39
-31 51 -12 11 18 97 69 116 69 10 0 34 16 54 35 19 19 40 35 47 35 7 0 20 14
29 30 10 18 25 30 37 30 11 0 23 5 27 12 5 8 -3 10 -28 5 -33 -5 -148 -81
-148 -98 0 -4 -17 -13 -37 -19 -21 -7 -55 -26 -76 -42 -30 -23 -44 -28 -67
-23 -17 4 -30 10 -30 13 0 4 26 25 56 47 214 152 334 404 289 601 -20 88 -67
168 -121 209 -36 26 -41 34 -37 61 4 25 0 35 -21 52 -38 30 -149 45 -292 40
l-123 -4 -10 46 c-15 68 -20 106 -31 215 -10 110 -19 125 -77 125 -24 0 -37
-7 -49 -25z m481 -645 c3 -6 -1 -7 -9 -4 -18 7 -21 14 -7 14 6 0 13 -4 16 -10z
m-40 -10 c-3 -5 -12 -10 -18 -10 -7 0 -6 4 3 10 19 12 23 12 15 0z"/>
<path d="M1149 2760 c-23 -13 -36 -51 -54 -158 -8 -50 -15 -94 -15 -97 0 -11
62 -4 93 11 32 15 34 20 46 93 16 109 15 138 -8 151 -24 12 -41 12 -62 0z"/>
<path d="M1827 2659 c7 -7 15 -10 18 -7 3 3 -2 9 -12 12 -14 6 -15 5 -6 -5z"/>
<path d="M1817 2551 c3 -10 0 -28 -6 -39 -15 -29 2 -36 25 -10 12 14 14 19 4
13 -12 -6 -13 -5 -2 6 17 18 15 27 -7 38 -16 9 -18 8 -14 -8z"/>
<path d="M1643 2508 c-14 -19 -22 -45 -16 -52 9 -8 54 44 48 55 -8 13 -21 11
-32 -3z"/>
<path d="M1377 2356 c-25 -25 -43 -38 -40 -30 3 8 -1 14 -10 14 -10 0 -16 -17
-20 -59 -4 -32 -11 -70 -17 -85 -8 -23 -13 -25 -29 -16 -11 5 -32 10 -47 10
-15 0 -38 10 -51 22 -17 16 -39 23 -83 26 -69 5 -72 0 -32 -57 29 -42 72 -71
103 -71 27 0 75 -26 82 -45 5 -10 20 -15 50 -15 29 0 53 -7 70 -20 35 -28 75
-27 79 3 2 16 9 22 26 21 12 0 22 3 22 7 0 13 -32 20 -45 9 -14 -12 -25 -3
-25 22 0 10 6 18 14 18 8 0 17 4 20 9 4 5 -3 7 -14 4 -14 -4 -20 0 -20 10 0
22 18 31 35 17 24 -20 17 3 -9 32 -14 14 -23 27 -22 29 5 6 18 189 13 189 -2
0 -24 -20 -50 -44z m-299 -161 c15 -33 59 -60 106 -64 8 0 28 -12 44 -26 17
-14 42 -25 60 -25 16 0 45 -10 63 -23 19 -13 40 -22 47 -19 7 2 12 -1 12 -7 0
-17 -18 -13 -48 9 -15 11 -46 21 -69 23 -27 3 -53 14 -73 31 -17 14 -42 26
-55 26 -35 0 -77 28 -108 72 -23 33 -25 39 -10 36 10 -2 24 -17 31 -33z m54 8
c10 -9 18 -22 18 -30 0 -7 11 -13 25 -13 35 0 72 -19 90 -47 20 -30 10 -29
-27 2 -16 14 -42 28 -56 31 -38 9 -82 28 -82 36 0 3 -3 13 -6 22 -8 21 14 21
38 -1z m255 -132 c15 -13 20 -21 11 -21 -8 0 -19 5 -25 11 -6 6 -28 17 -49 25
l-39 15 38 -5 c20 -3 49 -14 64 -25z"/>
<path d="M2734 2338 c0 -27 -6 -53 -12 -57 -14 -8 -66 -307 -58 -328 8 -20 34
-15 51 10 8 13 24 72 34 131 11 59 25 113 30 120 20 24 -8 152 -36 169 -5 3
-8 -17 -9 -45z"/>
<path d="M2596 2348 c-12 -27 -23 -37 -47 -42 -17 -3 -46 -21 -64 -40 -20 -21
-46 -37 -67 -41 -40 -8 -98 -40 -98 -55 0 -5 16 2 36 15 22 15 52 25 73 25 29
1 40 7 56 33 13 20 36 37 64 48 33 12 47 24 57 49 8 18 12 35 9 38 -2 3 -11
-11 -19 -30z"/>
<path d="M2560 2282 c-25 -11 -55 -36 -65 -52 -7 -12 -6 -13 6 -3 8 6 34 23
59 37 40 23 40 36 0 18z"/>
<path d="M952 2223 c-15 -6 -42 -55 -42 -77 0 -7 16 -30 35 -49 28 -28 35 -43
35 -75 0 -30 6 -45 21 -56 20 -13 21 -18 9 -45 -7 -17 -15 -29 -19 -27 -18 11
-29 -17 -49 -119 -12 -60 -22 -116 -22 -122 0 -23 38 -14 59 13 27 35 28 57 1
49 -28 -9 -36 17 -21 74 7 25 13 54 14 64 2 26 13 20 28 -15 7 -17 15 -26 17
-20 2 6 -1 20 -7 31 -8 15 -6 30 8 63 11 24 20 37 20 30 1 -8 9 -5 24 9 26 25
59 39 92 39 18 0 22 4 18 20 -6 24 -25 35 -76 44 -44 8 -63 33 -71 93 -9 69
-32 93 -74 76z"/>
<path d="M2400 2193 c-27 -10 -70 -44 -70 -55 0 -7 10 -2 23 9 12 12 38 28 57
36 32 14 24 22 -10 10z"/>
<path d="M1940 2131 c0 -5 -3 -18 -6 -28 -5 -17 -5 -17 9 0 11 13 23 17 39 12
22 -6 22 -5 -2 9 -29 18 -40 20 -40 7z"/>
<path d="M1673 2114 c19 -23 14 -36 -11 -26 -15 5 -15 4 1 -12 9 -9 17 -24 17
-32 0 -8 3 -14 8 -14 4 0 7 12 7 28 1 15 4 38 9 52 5 18 4 21 -3 11 -8 -13
-12 -13 -28 -1 -17 14 -17 14 0 -6z"/>
<path d="M2518 2113 c-9 -10 -19 -35 -22 -57 -7 -38 -7 -38 21 -31 15 3 31 12
35 18 15 23 6 87 -12 87 -4 0 -14 -8 -22 -17z"/>
<path d="M2370 2094 c-6 -14 -10 -31 -10 -39 0 -7 -11 -22 -24 -33 -17 -13
-27 -35 -35 -76 -11 -61 -9 -76 14 -76 36 0 62 66 81 203 7 52 -9 66 -26 21z"/>
<path d="M1470 2102 c0 -5 7 -15 15 -22 8 -7 12 -16 9 -21 -3 -5 0 -9 5 -9 6
0 11 4 11 9 0 5 3 17 7 27 4 12 3 15 -6 10 -6 -4 -18 -2 -26 4 -9 7 -15 8 -15
2z"/>
<path d="M1596 2059 c-4 -22 -1 -38 13 -55 l19 -24 6 23 c3 12 6 31 6 42 -1
19 -2 18 -13 -3 -17 -29 -28 -18 -20 19 3 16 3 29 1 29 -3 0 -8 -14 -12 -31z"/>
<path d="M2165 2060 c-16 -7 -17 -9 -3 -9 9 -1 20 4 23 9 7 11 7 11 -20 0z"/>
<path d="M1656 2032 c-5 -14 -3 -28 4 -37 14 -17 5 -35 -18 -35 -12 0 -13 -3
-4 -12 17 -17 60 25 45 44 -6 7 -13 24 -15 38 l-4 25 -8 -23z"/>
<path d="M2004 2020 c-12 -5 -25 -13 -29 -19 -8 -15 -4 -14 33 5 46 22 42 33
-4 14z"/>
<path d="M2152 2008 c-14 -18 -20 -97 -7 -102 5 -2 4 -5 -2 -5 -19 -1 -17 -61
2 -61 24 0 43 41 50 113 7 63 6 67 -13 67 -11 0 -24 -6 -30 -12z"/>
<path d="M1815 1999 c3 -4 -1 -10 -7 -12 -9 -4 -8 -5 2 -6 8 0 24 4 35 8 17 7
17 8 -7 13 -15 3 -25 2 -23 -3z"/>
<path d="M1320 1967 c0 -2 -9 -52 -20 -112 -22 -118 -25 -165 -11 -165 4 0 20
9 34 20 22 17 26 32 37 120 11 93 11 102 -5 120 -16 17 -35 27 -35 17z"/>
<path d="M2495 1951 c-9 -22 0 -23 25 -3 21 17 22 18 1 18 -11 0 -23 -7 -26
-15z"/>
<path d="M1992 1925 c-35 -19 -39 -26 -47 -72 -6 -39 -5 -43 14 -43 26 0 48
34 57 88 4 23 5 42 3 41 -2 -1 -15 -7 -27 -14z"/>
<path d="M1474 1860 c-7 -41 -7 -64 0 -71 8 -9 7 -10 -2 -4 -11 6 -12 3 -3
-14 6 -11 20 -25 31 -31 27 -15 90 3 118 33 24 26 56 96 47 105 -3 3 -20 0
-38 -6 -47 -17 -84 -15 -99 6 -36 47 -44 45 -54 -18z"/>
<path d="M1145 1880 c-35 -39 -23 -219 14 -196 10 6 33 152 28 179 -6 32 -22
39 -42 17z"/>
<path d="M2759 1884 c-19 -23 -64 -44 -96 -44 -24 0 -28 -4 -30 -27 0 -16 -4
-41 -7 -58 l-7 -30 14 30 14 30 6 -40 c10 -59 -10 -113 -26 -72 -4 7 -6 6 -6
-5 -1 -9 10 -25 24 -36 34 -27 55 -81 55 -139 -1 -55 -12 -82 -60 -146 -46
-60 -60 -66 -60 -23 0 47 -26 55 -34 11 -9 -47 -31 -63 -56 -40 -11 10 -20 24
-20 32 0 9 -7 12 -17 9 -12 -3 -24 5 -38 27 -30 48 -51 47 -47 -1 3 -36 1 -40
-23 -46 -14 -4 -30 -4 -35 -1 -4 3 -11 36 -15 73 -14 150 -15 153 -37 134 -7
-5 -35 -17 -62 -24 -69 -20 -72 -39 -7 -31 l51 6 0 -30 c0 -27 -4 -32 -44 -43
-59 -16 -53 -41 7 -29 23 4 47 8 53 9 11 0 28 -59 20 -67 -9 -10 -171 -41
-178 -35 -9 10 -28 153 -28 216 l0 53 85 18 c84 17 86 17 100 -1 12 -17 14
-18 20 -2 6 14 143 66 149 56 1 -2 12 -16 24 -32 24 -31 28 -81 11 -119 -15
-34 14 -82 41 -67 18 9 16 38 -5 107 -5 15 2 38 21 72 l27 51 -26 21 c-43 33
-36 89 15 128 14 11 19 8 33 -18 8 -17 20 -31 26 -31 6 0 7 5 2 13 -4 6 -8 21
-8 32 0 11 -4 20 -10 20 -5 0 -15 4 -21 7 -14 9 -104 6 -99 -2 9 -14 -18 -78
-30 -73 -10 3 -11 13 -3 40 15 57 5 67 -38 38 -31 -21 -52 -27 -94 -27 -3 0
-23 3 -45 7 -22 4 -37 3 -33 -1 9 -8 -29 -30 -69 -38 -62 -14 -73 -15 -68 -5
13 20 -26 20 -51 0 -15 -12 -36 -21 -48 -21 -11 0 -28 -4 -35 -9 -10 -7 -23
-4 -40 8 -55 37 -54 37 -48 -8 3 -24 15 -53 27 -66 l22 -24 -40 -20 c-22 -11
-52 -35 -67 -53 l-28 -33 26 -3 c19 -2 27 -9 27 -23 0 -11 5 -17 10 -14 6 3
10 14 10 24 0 14 17 20 92 34 50 9 95 14 100 11 15 -9 9 -64 -7 -64 -8 0 -19
-9 -25 -21 -15 -26 -3 -98 16 -106 13 -5 13 -8 -1 -23 -10 -11 -14 -26 -10
-42 6 -22 3 -26 -25 -32 -18 -3 -36 -4 -40 -1 -5 3 -11 39 -15 81 -8 85 -24
109 -64 99 -14 -4 -28 -8 -30 -10 -2 -3 2 -40 9 -84 15 -95 11 -111 -29 -111
-25 0 -34 8 -59 51 l-29 51 1 -58 1 -59 -35 0 c-35 0 -35 0 -41 55 -4 30 -10
90 -13 133 -7 75 -6 79 14 84 15 4 20 12 17 24 -4 15 1 18 34 17 49 0 61 10
89 74 18 42 21 64 17 116 -4 57 -3 65 14 69 15 4 19 15 19 55 0 47 -1 50 -22
44 -13 -3 -26 -6 -29 -6 -4 0 -9 -9 -12 -20 -3 -11 -1 -17 4 -14 6 3 3 -11 -6
-32 -9 -21 -18 -63 -20 -93 -3 -30 -7 -56 -10 -59 -2 -3 -24 2 -48 10 -40 13
-47 13 -78 -4 -18 -10 -40 -18 -48 -18 -10 0 -11 -3 -6 -9 6 -6 32 -11 59 -13
50 -3 71 -20 40 -32 -20 -8 -94 13 -113 32 -11 10 -30 13 -72 9 -44 -5 -58 -3
-63 8 -4 12 -12 10 -41 -10 -20 -13 -45 -27 -56 -30 -13 -4 -19 -16 -19 -35 0
-36 -10 -61 -21 -54 -5 3 -9 17 -9 32 0 35 -10 49 -42 61 -33 13 -46 -1 -57
-60 -6 -36 -4 -49 12 -73 15 -21 20 -45 20 -90 l0 -61 17 41 c28 65 81 90 131
64 43 -23 69 -126 50 -198 -16 -56 -54 -85 -104 -79 l-39 5 20 -21 c39 -43 46
-69 44 -169 -1 -91 0 -99 24 -127 18 -22 35 -31 56 -31 23 0 29 -4 26 -17 -6
-31 -50 -16 -91 30 -21 23 -54 60 -74 82 -31 35 -35 44 -30 82 3 33 0 46 -14
59 -14 12 -19 31 -19 67 0 28 -3 48 -6 44 -13 -12 -5 -100 11 -117 9 -10 15
-35 15 -61 0 -39 6 -51 40 -87 54 -56 50 -67 -9 -29 -46 30 -50 35 -50 73 -1
25 -9 51 -20 65 -12 16 -17 34 -14 52 6 30 -3 77 -15 77 -15 0 0 -115 19 -139
12 -14 19 -40 19 -65 0 -37 4 -43 37 -61 37 -20 83 -76 83 -101 0 -7 -12 -26
-26 -43 -19 -23 -34 -31 -59 -31 -58 0 -81 41 -73 131 5 43 3 49 -12 44 -30
-9 -45 23 -43 90 2 57 0 61 -20 61 -20 -1 -22 4 -22 47 0 42 -2 47 -22 47 -24
0 -27 14 -39 150 -5 70 6 203 23 246 6 16 5 17 -9 6 -14 -11 -17 -10 -23 7 -5
17 -15 21 -46 21 -44 0 -44 1 -25 -43 11 -28 11 -36 0 -52 -8 -10 -14 -32 -14
-48 0 -26 3 -29 24 -25 26 5 36 -7 36 -43 0 -10 -6 -19 -13 -19 -11 0 -12 -14
-6 -65 5 -36 12 -71 16 -78 4 -7 8 -39 8 -72 1 -33 8 -76 17 -95 9 -19 18 -56
21 -82 3 -30 14 -60 29 -80 25 -33 40 -107 38 -191 0 -33 5 -44 40 -76 47 -42
49 -61 15 -95 -30 -30 -33 -71 -6 -85 22 -12 31 -5 31 25 0 13 8 25 18 28 46
15 52 95 11 132 -24 22 -47 60 -30 50 6 -4 34 -7 62 -8 40 0 61 7 100 31 27
16 65 33 84 37 67 12 91 53 73 123 -2 8 14 18 42 27 25 7 46 14 46 14 4 0 18
-77 16 -90 -14 -109 6 -191 60 -247 25 -26 29 -36 23 -61 -7 -34 5 -63 42
-104 17 -17 27 -42 31 -73 6 -57 31 -74 90 -59 34 8 37 12 47 61 7 39 20 62
49 92 31 32 37 44 32 65 -5 20 0 29 25 47 17 12 47 46 66 76 26 42 38 53 51
47 31 -13 140 -16 175 -5 19 6 52 27 75 46 36 32 46 35 102 35 67 0 102 14
142 56 14 16 38 37 53 48 33 23 55 73 55 126 0 22 7 52 16 65 11 17 15 42 13
82 -2 33 2 68 9 80 16 29 15 76 -3 120 -14 34 -14 38 3 57 25 28 35 58 22 66
-12 7 -25 84 -36 203 l-6 77 30 0 c18 0 32 6 36 16 9 25 7 78 -5 113 -9 25 -8
40 5 71 16 41 9 53 -15 24z m-1092 -220 c-3 -3 -12 -4 -19 -1 -8 3 -5 6 6 6
11 1 17 -2 13 -5z m463 -33 c0 -19 -59 -51 -94 -51 -51 0 -45 15 17 39 58 22
77 25 77 12z m-612 -103 c-6 -17 -36 -34 -45 -24 -4 4 1 14 11 22 24 17 39 18
34 2z m92 -83 c0 -32 -3 -35 -42 -45 -63 -16 -68 -18 -68 -30 0 -8 15 -9 46
-4 l45 6 -3 -33 c-3 -29 -7 -34 -40 -42 -23 -6 -38 -15 -38 -24 0 -11 7 -14
26 -9 75 19 81 19 87 -6 4 -12 7 -28 7 -34 0 -15 -82 -41 -140 -46 l-45 -3
-12 85 c-6 47 -12 108 -12 136 l-1 51 78 15 c114 23 112 23 112 -17z m280 -95
c0 -5 -2 -10 -4 -10 -3 0 -8 5 -11 10 -3 6 -1 10 4 10 6 0 11 -4 11 -10z m513
-36 c12 -12 -6 -34 -29 -34 -28 0 -31 15 -6 29 20 12 27 13 35 5z m157 -99
c-14 -21 -20 -25 -20 -12 0 28 -1 31 -13 46 -9 12 -9 13 1 7 7 -4 12 -2 12 6
0 8 6 20 12 26 10 10 14 7 20 -15 5 -19 2 -36 -12 -58z m-42 2 c11 -22 10 -31
-3 -57 -9 -17 -27 -36 -41 -42 -21 -10 -28 -8 -44 8 -31 30 -17 92 24 110 39
17 48 14 64 -19z m-574 2 c-3 -5 -10 -7 -15 -3 -5 3 -7 10 -3 15 3 5 10 7 15
3 5 -3 7 -10 3 -15z m676 -51 c0 -26 -6 -40 -18 -47 -40 -21 -58 46 -25 95 16
25 17 25 30 8 7 -10 13 -35 13 -56z m-852 -26 c5 -15 -56 -42 -97 -42 -39 0
-32 22 12 44 36 18 78 17 85 -2z m792 -24 c17 -22 17 -23 -6 -51 -30 -35 -31
-71 -2 -91 23 -17 24 -16 -30 -32 -23 -7 -37 -53 -25 -85 11 -29 11 -29 -24
-29 -35 0 -36 0 -18 20 10 12 20 42 23 72 3 33 11 60 23 70 12 13 16 27 13 50
-3 18 -5 39 -5 46 2 33 5 41 13 36 4 -3 8 0 8 5 0 17 10 13 30 -11z m46 -74
c17 -40 11 -74 -13 -74 -20 0 -53 28 -53 45 0 12 37 65 46 65 3 0 12 -16 20
-36z m-118 -2 c4 -28 -14 -52 -39 -52 -16 0 -19 8 -19 41 0 38 1 40 28 37 19
-2 28 -9 30 -26z m-1025 -22 c-4 -5 -20 -12 -35 -15 -39 -10 -36 10 5 35 28
18 32 18 35 4 2 -9 0 -20 -5 -24z m994 -101 c4 -56 -20 -74 -94 -70 -33 1 -28
26 10 50 17 11 38 29 45 41 18 30 37 20 39 -21z m-677 10 c0 -17 -49 -30 -71
-19 -30 17 -22 25 26 27 25 1 45 -2 45 -8z m283 -42 c-9 -14 -23 4 -23 31 l1
27 13 -25 c8 -14 12 -28 9 -33z m501 31 c21 -30 20 -65 -1 -70 -50 -12 -76 25
-49 67 20 31 30 31 50 3z m-174 -93 c16 10 12 -11 -5 -25 -8 -7 -15 -21 -15
-31 0 -17 -8 -19 -65 -19 -62 0 -65 1 -53 19 6 11 18 17 26 13 10 -3 13 -1 8
6 -4 7 -1 12 8 12 9 0 16 5 16 10 0 6 9 10 20 10 11 0 20 5 20 11 0 8 4 8 15
-1 8 -6 19 -9 25 -5z m-1060 -37 c11 -24 19 -54 19 -68 0 -16 -5 -7 -13 23 -7
27 -18 53 -25 60 -12 12 -15 27 -6 27 4 0 15 -19 25 -42z m1160 18 c0 -20 -11
-25 -67 -32 l-48 -6 28 26 c31 29 87 36 87 12z m-260 -26 c-8 -5 -26 -9 -40
-9 -23 1 -23 2 5 9 43 11 52 11 35 0z m-93 -6 c-3 -3 -12 -4 -19 -1 -8 3 -5 6
6 6 11 1 17 -2 13 -5z m-13 -49 c-25 -19 -15 -19 29 0 20 8 60 15 89 15 l53 0
-30 -19 c-76 -46 -147 -50 -160 -10 -8 25 13 55 29 39 7 -7 4 -14 -10 -25z
m-44 4 c0 -21 -41 -69 -59 -69 -10 0 -23 -6 -29 -13 -15 -17 -179 -17 -207 0
-17 11 -13 12 32 13 77 0 146 18 194 50 47 30 69 37 69 19z m-364 -125 c18 -3
37 -15 43 -27 7 -12 28 -33 47 -46 25 -17 31 -26 22 -32 -10 -6 -7 -13 10 -29
37 -35 22 -99 -30 -126 -24 -13 -32 -13 -55 0 -16 8 -41 28 -57 44 -23 25 -28
37 -24 64 4 27 0 38 -29 67 -38 38 -63 90 -63 132 l0 28 52 -35 c29 -18 67
-37 84 -40z m-562 -36 c20 -20 36 -40 36 -46 0 -15 -40 -62 -53 -62 -6 0 -1 7
11 16 32 22 27 50 -18 96 -27 28 -40 50 -39 67 1 26 1 26 14 -5 8 -17 30 -47
49 -66z"/>
<path d="M2566 1836 c-10 -15 -12 -27 -6 -31 6 -3 10 1 10 9 0 9 4 16 8 16 5
0 9 7 9 15 0 20 -2 19 -21 -9z"/>
<path d="M1049 1573 c0 -5 -2 -17 -4 -28 -10 -54 -8 -73 13 -99 12 -16 22 -33
22 -37 0 -5 9 -9 19 -9 18 0 19 3 10 29 -6 17 -16 35 -24 41 -8 6 -11 27 -9
58 l3 47 -11 -42 c-9 -36 -8 -46 11 -76 30 -48 26 -58 -5 -12 -22 33 -25 45
-19 87 4 26 4 48 1 48 -3 0 -6 -3 -7 -7z"/>
<path d="M2580 1537 c0 -13 8 -40 18 -61 l19 -38 0 61 c0 36 -4 56 -9 49 -6
-10 -8 -10 -8 0 0 6 -4 12 -10 12 -5 0 -10 -10 -10 -23z"/>
<path d="M2368 1533 c-19 -5 -25 -38 -9 -48 12 -7 41 22 41 41 0 14 -2 15 -32
7z"/>
<path d="M1740 1441 c0 -5 5 -13 10 -16 6 -3 10 -2 10 4 0 5 -4 13 -10 16 -5
3 -10 2 -10 -4z"/>
<path d="M1296 1365 c-11 -30 -6 -111 8 -131 14 -18 15 -18 21 -1 4 10 5 42 3
73 -5 58 -21 88 -32 59z"/>
<path d="M1076 1322 c-3 -5 1 -15 9 -22 16 -14 20 -3 6 19 -5 8 -11 9 -15 3z"/>
<path d="M1100 1161 c0 -5 7 -11 14 -14 10 -4 13 -1 9 9 -6 15 -23 19 -23 5z"/>
</g>
</svg>
